<svg width="1024" height="1024" viewBox="0 0 1024 1024" fill="none" xmlns="http://www.w3.org/2000/svg">
<path d="M0 0H1024V1024H0V0Z" fill="#C693F1"/>
<path d="M358.28 785.2C322.813 785.2 294.44 774.813 273.16 754.04C252.387 733.267 242 705.4 242 670.44C242 633.453 252.893 604.827 274.68 584.56C296.973 563.787 329.653 553.4 372.72 553.4H417.56V469.8H372.72C329.653 469.8 296.973 459.667 274.68 439.4C252.893 418.627 242 389.747 242 352.76C242 317.8 252.387 289.933 273.16 269.16C294.44 248.387 322.813 238 358.28 238C386.653 238 408.947 243.32 425.16 253.96C441.88 264.6 453.533 278.787 460.12 296.52C467.213 314.253 470.76 333.76 470.76 355.04V418.12H554.36V355.04C554.36 333.76 557.653 314.253 564.24 296.52C571.333 278.787 582.987 264.6 599.2 253.96C615.92 243.32 638.467 238 666.84 238C702.307 238 730.427 248.387 751.2 269.16C772.48 289.933 783.12 317.8 783.12 352.76C783.12 389.747 772.227 418.627 750.44 439.4C728.653 459.667 695.973 469.8 652.4 469.8H607.56V553.4H652.4C695.973 553.4 728.653 563.787 750.44 584.56C772.227 604.827 783.12 633.453 783.12 670.44C783.12 705.4 772.48 733.267 751.2 754.04C730.427 774.813 702.307 785.2 666.84 785.2C638.467 785.2 615.92 779.88 599.2 769.24C582.987 758.6 571.333 744.413 564.24 726.68C557.653 708.947 554.36 689.44 554.36 668.16V605.08H470.76V668.16C470.76 689.44 467.213 708.947 460.12 726.68C453.533 744.413 441.88 758.6 425.16 769.24C408.947 779.88 386.653 785.2 358.28 785.2ZM607.56 353.52V418.12H652.4C679.253 418.12 698.76 412.8 710.92 402.16C723.08 391.013 729.16 374.547 729.16 352.76C729.16 330.467 723.08 314.507 710.92 304.88C699.267 295.253 684.573 290.44 666.84 290.44C647.08 290.44 632.133 296.267 622 307.92C612.373 319.067 607.56 334.267 607.56 353.52ZM372.72 418.12H417.56V353.52C417.56 334.267 412.493 319.067 402.36 307.92C392.733 296.267 378.04 290.44 358.28 290.44C340.547 290.44 325.6 295.253 313.44 304.88C301.787 314.507 295.96 330.467 295.96 352.76C295.96 374.547 302.04 391.013 314.2 402.16C326.36 412.8 345.867 418.12 372.72 418.12ZM470.76 553.4H554.36V469.8H470.76V553.4ZM358.28 732.76C378.04 732.76 392.733 727.187 402.36 716.04C412.493 704.387 417.56 688.933 417.56 669.68V605.08H372.72C345.867 605.08 326.36 610.653 314.2 621.8C302.04 632.44 295.96 648.653 295.96 670.44C295.96 692.733 301.787 708.693 313.44 718.32C325.6 727.947 340.547 732.76 358.28 732.76ZM607.56 669.68C607.56 688.933 612.373 704.387 622 716.04C632.133 727.187 647.08 732.76 666.84 732.76C684.573 732.76 699.267 727.947 710.92 718.32C723.08 708.693 729.16 692.733 729.16 670.44C729.16 648.653 723.08 632.44 710.92 621.8C698.76 610.653 679.253 605.08 652.4 605.08H607.56V669.68Z" fill="#080E10" fill-opacity="0.75"/>
</svg>
